<svg width="24" height="24" viewBox="0 0 24 24" fill="currentColor" xmlns="http://www.w3.org/2000/svg">
  <!-- Door frame -->
  <path d="M4 4C4 3.44772 4.44772 3 5 3H13C13.5523 3 14 3.44772 14 4V8H12V5H6V19H12V16H14V20C14 20.5523 13.5523 21 13 21H5C4.44772 21 4 20.5523 4 20V4Z"/>
  
  <!-- Exit arrow -->
  <path d="M20.7071 12.7071C21.0976 12.3166 21.0976 11.6834 20.7071 11.2929L17.7071 8.29289C17.3166 7.90237 16.6834 7.90237 16.2929 8.29289C15.9024 8.68342 15.9024 9.31658 16.2929 9.70711L17.5858 11H10C9.44772 11 9 11.4477 9 12C9 12.5523 9.44772 13 10 13H17.5858L16.2929 14.2929C15.9024 14.6834 15.9024 15.3166 16.2929 15.7071C16.6834 16.0976 17.3166 16.0976 17.7071 15.7071L20.7071 12.7071Z"/>
</svg>
