<svg width="24" height="24" viewBox="0 0 24 24" fill="currentColor" xmlns="http://www.w3.org/2000/svg">
  <!-- Back folder -->
  <path d="M6 4C5.44772 4 5 4.44772 5 5V16C5 17.1046 5.89543 18 7 18H18C19.1046 18 20 17.1046 20 16V8C20 6.89543 19.1046 6 18 6H11L9 4H6Z" opacity="0.6"/>
  
  <!-- Front folder -->
  <path d="M4 6C3.44772 6 3 6.44772 3 7V18C3 19.1046 3.89543 20 5 20H16C17.1046 20 18 19.1046 18 18V10C18 8.89543 17.1046 8 16 8H10L8 6H4Z"/>
  
  <!-- Document inside -->
  <rect x="12" y="11" width="4" height="5" rx="0.8"/>
</svg>
