<svg width="24" height="24" viewBox="0 0 24 24" fill="currentColor" xmlns="http://www.w3.org/2000/svg">
  <path d="M19.4 13.3c.04-.43.1-.87.1-1.3s-.06-.87-.1-1.3l2.1-1.6a.5.5 0 0 0 .12-.65l-2-3.5a.5.5 0 0 0-.6-.22l-2.5 1a7.05 7.05 0 0 0-2.2-1.3l-.4-2.6a.5.5 0 0 0-.5-.4h-4a.5.5 0 0 0-.5.4l-.4 2.6a7.05 7.05 0 0 0-2.2 1.3l-2.5-1a.5.5 0 0 0-.6.22l-2 3.5a.5.5 0 0 0 .12.65l2.1 1.6c-.04.43-.1.87-.1 1.3s.06.87.1 1.3l-2.1 1.6a.5.5 0 0 0-.12.65l2 3.5a.5.5 0 0 0 .6.22l2.5-1a7.05 7.05 0 0 0 2.2 1.3l.4 2.6a.5.5 0 0 0 .5.4h4a.5.5 0 0 0 .5-.4l.4-2.6a7.05 7.05 0 0 0 2.2-1.3l2.5 1a.5.5 0 0 0 .6-.22l2-3.5a.5.5 0 0 0-.12-.65l-2.1-1.6ZM12 15.5A3.5 3.5 0 1 1 12 8.5a3.5 3.5 0 0 1 0 7Z"/>
</svg>
